<?xml version="1.0" encoding="UTF-8"?>
<svg version="1.1" xmlns="http://www.w3.org/2000/svg" width="403" height="500">
<path d="M0 0 C10.53353389 8.17754868 17.48606178 20.21885182 19.25 33.4375 C20.50214713 48.00194821 15.87142193 60.97085035 7.1875 72.4375 C6.53382446 73.30266235 6.53382446 73.30266235 5.86694336 74.18530273 C3.72748303 76.91126394 2.60585767 78.31888078 -0.75 79.4375 C-0.75 80.0975 -0.75 80.7575 -0.75 81.4375 C-2.33886719 82.84204102 -2.33886719 82.84204102 -4.546875 84.44140625 C-5.3409375 85.01697266 -6.135 85.59253906 -6.953125 86.18554688 C-8.21382813 87.08370117 -8.21382813 87.08370117 -9.5 88 C-10.325 88.60263672 -11.15 89.20527344 -12 89.82617188 C-18.78701693 94.70297194 -18.78701693 94.70297194 -22.75 95.4375 C-22.75 96.0975 -22.75 96.7575 -22.75 97.4375 C-23.34941406 97.71980469 -23.94882812 98.00210938 -24.56640625 98.29296875 C-31.94163019 101.87042446 -39.06316404 105.82483227 -46.1875 109.875 C-70.05165509 123.4375 -70.05165509 123.4375 -72.75 123.4375 C-72.75 124.0975 -72.75 124.7575 -72.75 125.4375 C-73.71550781 125.83582031 -74.68101562 126.23414063 -75.67578125 126.64453125 C-107.1210767 140.14365457 -130.80484882 160.03784604 -143.75 192.4375 C-147.45798878 202.55852869 -149.87625082 212.83482172 -151.75 223.4375 C-151.16734375 223.08558594 -150.5846875 222.73367187 -149.984375 222.37109375 C-105.96796718 195.86435759 -105.96796718 195.86435759 -83.9375 201.0625 C-66.62792866 205.54139673 -53.23655383 215.2765423 -43.61328125 230.265625 C-29.18720548 254.82322148 -30.92077846 280.68858869 -37.75 307.4375 C-43.61881441 329.34170852 -54.50589817 350.41275704 -70.75 366.4375 C-70.23429443 366.62223877 -69.71858887 366.80697754 -69.18725586 366.99731445 C-39.5500243 377.71203807 -10.22182323 391.90731515 14.3203125 411.96484375 C16.27531607 413.52870143 16.27531607 413.52870143 18.7421875 414.83203125 C23.25304545 417.71982349 26.05995401 422.20567428 29.25 426.4375 C29.75144531 427.07429688 30.25289063 427.71109375 30.76953125 428.3671875 C36.92588455 436.43926403 38.37859826 444.31732224 37.25 454.4375 C36.30001387 457.71129837 34.96799855 460.5025858 33.25 463.4375 C32.6725 464.489375 32.095 465.54125 31.5 466.625 C20.73027983 480.08715021 1.92582627 485.17639055 -14.50024414 487.01782227 C-16.1779087 487.18634273 -17.85626211 487.3481116 -19.53515625 487.50390625 C-20.44580841 487.58889374 -21.35646057 487.67388123 -22.29470825 487.76144409 C-31.89877442 488.60907165 -41.48874937 488.89340265 -51.125 489.0625 C-53.05306239 489.10217402 -54.98112222 489.14197249 -56.90917969 489.18188477 C-69.02731397 489.41646181 -81.13732815 489.44778208 -93.25704956 489.38833618 C-94.16222321 489.38393524 -95.06739685 489.3795343 -96 489.375 C-96.91218292 489.37051849 -97.82436584 489.36603699 -98.76419067 489.36141968 C-120.20536985 489.27765696 -141.63019553 489.82690523 -163.0625 490.375 C-164.36215446 490.40792208 -164.36215446 490.40792208 -165.68806458 490.44150925 C-182.2740488 490.86181081 -198.85668536 491.29226702 -215.43359375 491.9921875 C-227.6228343 492.49640321 -239.80254661 492.62365616 -252.00146484 492.62280273 C-255.51281548 492.62500805 -259.02385979 492.64333108 -262.53515625 492.66210938 C-281.07901014 492.70870706 -299.36815416 491.61445345 -317.6875 488.625 C-318.73180176 488.45468262 -319.77610352 488.28436523 -320.85205078 488.10888672 C-335.45003379 485.59636013 -351.82988631 481.6043177 -361.37890625 469.421875 C-366.20968587 462.43031932 -366.83835709 455.73060115 -365.75 447.4375 C-361.41878483 432.04820068 -351.6948766 420.6996194 -340.75 409.4375 C-340.06679688 408.72851562 -339.38359375 408.01953125 -338.6796875 407.2890625 C-331.40267414 400.29742221 -322.42302349 395.47700893 -313.75 390.4375 C-312.24179687 389.55191406 -312.24179687 389.55191406 -310.703125 388.6484375 C-290.91911765 377.4375 -290.91911765 377.4375 -284.75 377.4375 C-285.20890625 376.45652344 -285.6678125 375.47554688 -286.140625 374.46484375 C-295.96361672 353.02823867 -301.71744543 326.70127188 -294.90625 303.4296875 C-285.61149164 279.37636013 -269.04099702 263.27593597 -245.75 252.4375 C-231.29732068 246.32242467 -215.88306628 242.45912622 -200.75 238.4375 C-199.96818359 238.22561035 -199.18636719 238.0137207 -198.38085938 237.79541016 C-195.01302496 236.90836051 -192.26419615 236.4375 -188.75 236.4375 C-197.47376585 209.67140022 -209.47778765 182.32347537 -235.33203125 168.0078125 C-247.9233989 161.92922122 -261.52398861 158.84740875 -275.2019043 156.41207886 C-326.2800969 147.25308551 -326.2800969 147.25308551 -341.625 126.5 C-349.29420436 114.72487727 -351.39068034 102.16443944 -348.59375 88.30859375 C-344.5501253 74.54903746 -333.49454146 62.81774609 -321.08984375 55.96875 C-305.25574649 48.30780843 -288.998824 48.9886329 -272.57421875 54.50390625 C-227.03814723 71.02777412 -197.65610715 107.6097251 -177.50878906 150.05224609 C-175.48511969 154.47255079 -173.57256355 158.9307974 -171.75 163.4375 C-170.34894995 160.8135428 -169.38882101 158.41597683 -168.7421875 155.515625 C-168.56461914 154.74992188 -168.38705078 153.98421875 -168.20410156 153.1953125 C-167.91744629 151.95394531 -167.91744629 151.95394531 -167.625 150.6875 C-160.7826029 122.44308459 -149.43234374 97.39837853 -134.75 72.4375 C-134.26208984 71.59848145 -133.77417969 70.75946289 -133.27148438 69.89501953 C-127.16099653 59.41295515 -120.5075784 49.76592761 -112.75 40.4375 C-112.07662598 39.58575195 -112.07662598 39.58575195 -111.38964844 38.71679688 C-110.22037084 37.25413068 -108.98964245 35.84102738 -107.75 34.4375 C-107.09 34.4375 -106.43 34.4375 -105.75 34.4375 C-105.481875 33.798125 -105.21375 33.15875 -104.9375 32.5 C-103.75 30.4375 -103.75 30.4375 -100.75 29.4375 C-100.75 28.7775 -100.75 28.1175 -100.75 27.4375 C-97.28196432 24.2042443 -93.4879263 21.3510215 -89.75 18.4375 C-88.88632812 17.75945313 -88.02265625 17.08140625 -87.1328125 16.3828125 C-74.40622915 6.75083908 -60.96188052 0.10730216 -45.75 -4.5625 C-44.70199219 -4.9028125 -43.65398437 -5.243125 -42.57421875 -5.59375 C-27.76200959 -9.92316431 -12.94109227 -8.64514669 0 0 Z " fill="#E1D0BF" transform="translate(365.75,7.5625)"/>
<path d="M0 0 C10.53353389 8.17754868 17.48606178 20.21885182 19.25 33.4375 C20.50214713 48.00194821 15.87142193 60.97085035 7.1875 72.4375 C6.53382446 73.30266235 6.53382446 73.30266235 5.86694336 74.18530273 C3.72748303 76.91126394 2.60585767 78.31888078 -0.75 79.4375 C-0.75 80.0975 -0.75 80.7575 -0.75 81.4375 C-2.33886719 82.84204102 -2.33886719 82.84204102 -4.546875 84.44140625 C-5.3409375 85.01697266 -6.135 85.59253906 -6.953125 86.18554688 C-8.21382813 87.08370117 -8.21382813 87.08370117 -9.5 88 C-10.325 88.60263672 -11.15 89.20527344 -12 89.82617188 C-18.78701693 94.70297194 -18.78701693 94.70297194 -22.75 95.4375 C-22.75 96.0975 -22.75 96.7575 -22.75 97.4375 C-23.34941406 97.71980469 -23.94882812 98.00210938 -24.56640625 98.29296875 C-31.94163019 101.87042446 -39.06316404 105.82483227 -46.1875 109.875 C-70.05165509 123.4375 -70.05165509 123.4375 -72.75 123.4375 C-72.75 124.0975 -72.75 124.7575 -72.75 125.4375 C-73.71550781 125.83582031 -74.68101562 126.23414063 -75.67578125 126.64453125 C-107.1210767 140.14365457 -130.80484882 160.03784604 -143.75 192.4375 C-147.45798878 202.55852869 -149.87625082 212.83482172 -151.75 223.4375 C-149.275 222.4475 -149.275 222.4475 -146.75 221.4375 C-148.39169528 223.45804804 -150.05911778 225.45793058 -151.75 227.4375 C-152.08 227.4375 -152.41 227.4375 -152.75 227.4375 C-153.08 230.4075 -153.41 233.3775 -153.75 236.4375 C-152.8528125 235.73625 -151.955625 235.035 -151.03125 234.3125 C-130.96668686 218.92740108 -110.31173464 210.46267262 -84.66162109 213.70117188 C-78.96355671 214.62899829 -74.22126225 215.67278155 -69.75 219.4375 C-70.0625 221.8125 -70.0625 221.8125 -70.75 224.4375 C-73.64333443 226.36638962 -74.78471014 226.77599382 -78.07421875 227.26171875 C-89.91949589 229.16775281 -100.08052621 231.93302148 -110.75 237.4375 C-112.11125 238.12972656 -112.11125 238.12972656 -113.5 238.8359375 C-124.11472155 244.72166451 -133.00479389 253.0369118 -140.4453125 262.53515625 C-147.48295072 271.39780912 -154.42048432 279.42776648 -164.75 284.4375 C-165.57628906 284.88480469 -166.40257812 285.33210938 -167.25390625 285.79296875 C-174.1089619 289.27668556 -180.92426024 290.64939195 -188.44140625 291.859375 C-191.61642684 292.25130329 -191.61642684 292.25130329 -193.75 293.4375 C-200.79572334 294.52152409 -207.94707201 294.67704619 -215.0625 294.75 C-216.02478516 294.77900391 -216.98707031 294.80800781 -217.97851562 294.83789062 C-222.40900102 294.87774966 -225.00660937 294.8816759 -228.875 292.5703125 C-230.75 290.4375 -230.75 290.4375 -231.4375 288 C-230.42760163 284.23583335 -227.88278476 282.51328664 -224.75 280.4375 C-221.65658059 278.95901971 -218.47034303 277.79589483 -215.25 276.625 C-206.50558526 273.28918843 -198.68799133 269.3920129 -190.75 264.4375 C-189.55697266 263.79554688 -189.55697266 263.79554688 -188.33984375 263.140625 C-185.84846964 261.69434023 -184.01889044 260.41935752 -183.234375 257.5546875 C-182.90806344 251.05176434 -184.9886115 244.63381313 -186.75 238.4375 C-188.73 238.1075 -190.71 237.7775 -192.75 237.4375 C-191.43 237.1075 -190.11 236.7775 -188.75 236.4375 C-197.47376585 209.67140022 -209.47778765 182.32347537 -235.33203125 168.0078125 C-247.9233989 161.92922122 -261.52398861 158.84740875 -275.2019043 156.41207886 C-326.2800969 147.25308551 -326.2800969 147.25308551 -341.625 126.5 C-349.29420436 114.72487727 -351.39068034 102.16443944 -348.59375 88.30859375 C-344.5501253 74.54903746 -333.49454146 62.81774609 -321.08984375 55.96875 C-305.25574649 48.30780843 -288.998824 48.9886329 -272.57421875 54.50390625 C-227.03814723 71.02777412 -197.65610715 107.6097251 -177.50878906 150.05224609 C-175.48511969 154.47255079 -173.57256355 158.9307974 -171.75 163.4375 C-170.34894995 160.8135428 -169.38882101 158.41597683 -168.7421875 155.515625 C-168.56461914 154.74992188 -168.38705078 153.98421875 -168.20410156 153.1953125 C-167.91744629 151.95394531 -167.91744629 151.95394531 -167.625 150.6875 C-160.7826029 122.44308459 -149.43234374 97.39837853 -134.75 72.4375 C-134.26208984 71.59848145 -133.77417969 70.75946289 -133.27148438 69.89501953 C-127.16099653 59.41295515 -120.5075784 49.76592761 -112.75 40.4375 C-112.07662598 39.58575195 -112.07662598 39.58575195 -111.38964844 38.71679688 C-110.22037084 37.25413068 -108.98964245 35.84102738 -107.75 34.4375 C-107.09 34.4375 -106.43 34.4375 -105.75 34.4375 C-105.481875 33.798125 -105.21375 33.15875 -104.9375 32.5 C-103.75 30.4375 -103.75 30.4375 -100.75 29.4375 C-100.75 28.7775 -100.75 28.1175 -100.75 27.4375 C-97.28196432 24.2042443 -93.4879263 21.3510215 -89.75 18.4375 C-88.88632812 17.75945313 -88.02265625 17.08140625 -87.1328125 16.3828125 C-74.40622915 6.75083908 -60.96188052 0.10730216 -45.75 -4.5625 C-44.70199219 -4.9028125 -43.65398437 -5.243125 -42.57421875 -5.59375 C-27.76200959 -9.92316431 -12.94109227 -8.64514669 0 0 Z " fill="#A9C46D" transform="translate(365.75,7.5625)"/>
<path d="M0 0 C31.0230612 8.90841603 61.87514799 25.10488883 86.96484375 45.45703125 C89.0097726 47.08097733 89.0097726 47.08097733 91.50390625 48.40234375 C96.00911741 51.28596091 98.81423318 55.77385091 102 60 C102.50144531 60.63679688 103.00289063 61.27359375 103.51953125 61.9296875 C109.67588455 70.00176403 111.12859826 77.87982224 110 88 C109.05001387 91.27379837 107.71799855 94.0650858 106 97 C105.13375 98.5778125 105.13375 98.5778125 104.25 100.1875 C93.48027983 113.64965021 74.67582627 118.73889055 58.24975586 120.58032227 C56.5720913 120.74884273 54.89373789 120.9106116 53.21484375 121.06640625 C52.30419159 121.15139374 51.39353943 121.23638123 50.45529175 121.32394409 C40.85122558 122.17157165 31.26125063 122.45590265 21.625 122.625 C19.69693761 122.66467402 17.76887778 122.70447249 15.84082031 122.74438477 C3.72268603 122.97896181 -8.38732815 123.01028208 -20.50704956 122.95083618 C-21.86481003 122.94423477 -21.86481003 122.94423477 -23.25 122.9375 C-24.16218292 122.93301849 -25.07436584 122.92853699 -26.01419067 122.92391968 C-47.45536985 122.84015696 -68.88019553 123.38940523 -90.3125 123.9375 C-91.17893631 123.95944805 -92.04537262 123.9813961 -92.93806458 124.00400925 C-109.5240488 124.42431081 -126.10668536 124.85476702 -142.68359375 125.5546875 C-154.8728343 126.05890321 -167.05254661 126.18615616 -179.25146484 126.18530273 C-182.76281548 126.18750805 -186.27385979 126.20583108 -189.78515625 126.22460938 C-208.32901014 126.27120706 -226.61815416 125.17695345 -244.9375 122.1875 C-245.98180176 122.01718262 -247.02610352 121.84686523 -248.10205078 121.67138672 C-262.70003379 119.15886013 -279.07988631 115.1668177 -288.62890625 102.984375 C-293.45968587 95.99281932 -294.08835709 89.29310115 -293 81 C-288.66878483 65.61070068 -278.9448766 54.2621194 -268 43 C-267.31679688 42.29101562 -266.63359375 41.58203125 -265.9296875 40.8515625 C-258.65267414 33.85992221 -249.67302349 29.03950893 -241 24 C-239.99453125 23.40960938 -238.9890625 22.81921875 -237.953125 22.2109375 C-218.16911765 11 -218.16911765 11 -212 11 C-211.67 10.34 -211.34 9.68 -211 9 C-210.47792969 9.87140625 -209.95585937 10.7428125 -209.41796875 11.640625 C-196.30958537 33.05522084 -178.60683245 47.46580388 -153.76904297 53.54614258 C-145.22016443 55.35682573 -136.69262662 55.35362283 -128 55.3125 C-127.22442749 55.31100952 -126.44885498 55.30951904 -125.64978027 55.3079834 C-113.86850142 55.26725139 -102.50923806 54.70839284 -91 52 C-90.32646484 51.85014648 -89.65292969 51.70029297 -88.95898438 51.54589844 C-80.46978649 49.62911406 -72.86552007 46.6960539 -65 43 C-64.07767578 42.57412598 -63.15535156 42.14825195 -62.20507812 41.70947266 C-38.58047575 30.77998556 -18.46990159 18.46990159 0 0 Z " fill="#96775A" transform="translate(293,374)"/>
<path d="M0 0 C0.5465625 0.46019531 1.093125 0.92039063 1.65625 1.39453125 C1.34375 3.76953125 1.34375 3.76953125 0.65625 6.39453125 C-2.23708443 8.32342087 -3.37846014 8.73302507 -6.66796875 9.21875 C-18.51324589 11.12478406 -28.67427621 13.89005273 -39.34375 19.39453125 C-40.25125 19.85601562 -41.15875 20.3175 -42.09375 20.79296875 C-53.95025986 27.36725146 -63.09540742 36.79618918 -71.34375 47.39453125 C-72.80621307 49.13784796 -74.28452519 50.86803993 -75.78125 52.58203125 C-76.41933594 53.31808594 -77.05742187 54.05414063 -77.71484375 54.8125 C-79.34375 56.39453125 -79.34375 56.39453125 -81.34375 56.39453125 C-82.15974008 48.33890714 -82.73414258 40.30098734 -82.96875 32.20703125 C-83.03964844 31.08361328 -83.11054688 29.96019531 -83.18359375 28.80273438 C-83.36288466 20.76767088 -83.36288466 20.76767088 -80.55078125 16.97875977 C-78.25449735 14.8836941 -75.92708571 13.12012485 -73.34375 11.39453125 C-72.70453613 10.94134521 -72.06532227 10.48815918 -71.40673828 10.02124023 C-69.67075649 8.84080142 -67.90874955 7.76129415 -66.09375 6.70703125 C-65.13722534 6.14423462 -65.13722534 6.14423462 -64.16137695 5.57006836 C-58.14448728 2.12279101 -51.96320297 -0.52156689 -45.34375 -2.60546875 C-44.19132812 -2.97285156 -44.19132812 -2.97285156 -43.015625 -3.34765625 C-30.97413083 -6.42118448 -10.63726258 -7.28652487 0 0 Z " fill="#9A7C5E" transform="translate(294.34375,225.60546875)"/>
<path d="M0 0 C0 9.9 0 19.8 0 30 C-11.5526662 32.88816655 -21.58444734 34.19225339 -33.3125 34.3125 C-34.75592773 34.35600586 -34.75592773 34.35600586 -36.22851562 34.40039062 C-40.65900102 34.44024966 -43.25660937 34.4441759 -47.125 32.1328125 C-49 30 -49 30 -49.6875 27.5625 C-48.67760163 23.79833335 -46.13278476 22.07578664 -43 20 C-39.90659005 18.52152423 -36.72040009 17.35822094 -33.5 16.1875 C-23.55088791 12.39718868 -14.55489447 7.88435163 -5.8046875 1.765625 C-3 0 -3 0 0 0 Z " fill="#9A7C5D" transform="translate(184,268)"/>
<path d="M0 0 C0 0.66 0 1.32 0 2 C-0.59296875 2.25523437 -1.1859375 2.51046875 -1.796875 2.7734375 C-4.2267449 4.12623741 -5.49236266 5.48341276 -7.25 7.625 C-12.91290153 14.29221953 -18.70592116 20.13728077 -26 25 C-24.38365506 21.12077214 -21.76486352 18.28472601 -18.9375 15.25 C-18.451604 14.7243042 -17.96570801 14.1986084 -17.46508789 13.65698242 C-4.68004966 0 -4.68004966 0 0 0 Z " fill="#524231" transform="translate(38,408)"/>
<path d="M0 0 C0.66 0.33 1.32 0.66 2 1 C-0.29108412 3.45887681 -2.58296701 5.91700768 -4.875 8.375 C-5.85146484 9.42300781 -5.85146484 9.42300781 -6.84765625 10.4921875 C-7.47285156 11.1625 -8.09804688 11.8328125 -8.7421875 12.5234375 C-9.60626221 13.450354 -9.60626221 13.450354 -10.48779297 14.39599609 C-11.63848669 15.61654142 -12.81386617 16.81386617 -14 18 C-14.99 17.67 -15.98 17.34 -17 17 C-16.01 15.515 -16.01 15.515 -15 14 C-14.34 14 -13.68 14 -13 14 C-12.731875 13.360625 -12.46375 12.72125 -12.1875 12.0625 C-11 10 -11 10 -8 9 C-8 8.34 -8 7.68 -8 7 C-6.25 5.2734375 -6.25 5.2734375 -4 3.375 C-3.2575 2.74335938 -2.515 2.11171875 -1.75 1.4609375 C-0.88375 0.73777344 -0.88375 0.73777344 0 0 Z " fill="#667540" transform="translate(273,28)"/>
<path d="M0 0 C0.66 0.33 1.32 0.66 2 1 C-2.71890538 6.40052505 -7.30358857 11.61814505 -13 16 C-13 11.08924079 -9.30469813 8.39044878 -6 5 C-4.05397986 3.23549584 -2.07285289 1.6178364 0 0 Z " fill="#968C7F" transform="translate(97,274)"/>
<path d="M0 0 C0.66 0.33 1.32 0.66 2 1 C-3.94 6.94 -9.88 12.88 -16 19 C-16 14.80130728 -14.19810866 13.66463027 -11.375 10.625 C-10.9207666 10.13475342 -10.4665332 9.64450684 -9.99853516 9.1394043 C-6.85830473 5.79321137 -3.64356736 2.78061719 0 0 Z " fill="#D8C6B1" transform="translate(242,252)"/>
<path d="M0 0 C2.83576173 1.41788087 3.35832224 3.51563111 4.40234375 6.390625 C5.57684143 11.51849721 5.21511383 16.77353059 5 22 C4.67 22 4.34 22 4 22 C3.92652344 20.75283203 3.92652344 20.75283203 3.8515625 19.48046875 C3.77679688 18.39378906 3.70203125 17.30710937 3.625 16.1875 C3.55539062 15.10855469 3.48578125 14.02960938 3.4140625 12.91796875 C3.18804267 9.81373814 3.18804267 9.81373814 1 7 C0.60612212 4.67612053 0.26513915 2.34206251 0 0 Z " fill="#2D251B" transform="translate(398,440)"/>
<path d="M0 0 C0.66 0.33 1.32 0.66 2 1 C1.09515208 2.15518918 0.1755794 3.29885406 -0.75 4.4375 C-1.26046875 5.07558594 -1.7709375 5.71367188 -2.296875 6.37109375 C-4.19667629 8.18810554 -5.43586908 8.60423197 -8 9 C-7.04270084 7.87411986 -6.08412105 6.7493285 -5.125 5.625 C-4.59132813 4.99851562 -4.05765625 4.37203125 -3.5078125 3.7265625 C-2.38567993 2.44163349 -1.20628025 1.20628025 0 0 Z " fill="#5A6839" transform="translate(36,69)"/>
<path d="M0 0 C0.33 0.66 0.66 1.32 1 2 C2.65 1.34 4.3 0.68 6 0 C4.35 1.98 2.7 3.96 1 6 C0.34 5.34 -0.32 4.68 -1 4 C-0.625 1.875 -0.625 1.875 0 0 Z " fill="#85836B" transform="translate(213,229)"/>
</svg>
